<?xml version="1.0" encoding="utf-8"?><svg viewBox="0 0 113.031 38.438" xmlns="http://www.w3.org/2000/svg" xmlns:xlink="http://www.w3.org/1999/xlink"><style>:root>svg{display:none}:root>svg:target{display:block}</style><svg viewBox="0 0 22 35" id="arrow-black" xmlns="http://www.w3.org/2000/svg"><path fill="none" stroke="#000" stroke-linecap="round" stroke-width="4" d="M2.012 2.349l16.192 15.137L2.012 32.622"/></svg><svg viewBox="0 0 24 24" id="arrow-white" xmlns="http://www.w3.org/2000/svg"><path fill="#fff" d="M19 11H7.14l3.63-4.36a1 1 0 10-1.54-1.28l-5 6a1.19 1.19 0 00-.09.15c0 .05 0 .08-.07.13A1 1 0 004 12a1 1 0 00.07.36c0 .05 0 .08.07.13a1.19 1.19 0 00.09.15l5 6A1 1 0 0010 19a1 1 0 00.64-.23 1 1 0 00.13-1.41L7.14 13H19a1 1 0 000-2z"/></svg><svg viewBox="0 0 43.875 38.438" id="home" xmlns="http://www.w3.org/2000/svg"><path fill="#282828" stroke="#282828" stroke-width="2" fill-rule="evenodd" d="M1.901 20.351L22.212 1.808l19.756 18.541.479-.492L22.452 1.085a.338.338 0 00-.474 0L1.429 19.855zm5.07-.155V37.1a.339.339 0 00.342.342h10.551a.341.341 0 00.241-.1.346.346 0 00.1-.242v-9.845h7.834V37.1a.34.34 0 00.342.342h10.735a.336.336 0 00.241-.1.348.348 0 00.1-.242V20.2h-.681v16.559H26.72v-9.846a.35.35 0 00-.1-.245.339.339 0 00-.241-.1h-8.515a.345.345 0 00-.243.1.361.361 0 00-.1.245v9.846H7.652V20.2H6.97z"/></svg><svg viewBox="0 0 113.031 23.16" id="logo" xmlns="http://www.w3.org/2000/svg"><defs><style>.dcls-1{fill:#171717;fill-rule:evenodd}</style></defs><path class="dcls-1" d="M9.58 3.26C3.458 1.91-1.137 6.53.236 12.68a6.78 6.78 0 005.106 5.14c6.1 1.39 10.7-3.24 9.347-9.41A6.772 6.772 0 009.58 3.26zM7.473 15.72a5.193 5.193 0 010-10.37c2.876 0 4.884 2.13 4.884 5.18s-2.009 5.19-4.884 5.19zm18.78-12.7a6.441 6.441 0 00-5.017 2.04V3.13h-2.464v14.8h2.544v-7.75c0-2.99 1.715-4.78 4.589-4.78 2.549 0 3.9 1.45 3.9 4.19v8.34h2.544V9.4c-.004-3.99-2.282-6.38-6.096-6.38zm17.987 0a6.487 6.487 0 00-5.1 2.23V3.13h-2.463v20.02h2.554v-7.24a6.485 6.485 0 005.017 2.16 7.528 7.528 0 00-.008-15.05zm-.131 12.7a5.2 5.2 0 010-10.38 4.889 4.889 0 014.911 5.19 4.839 4.839 0 01-4.911 5.19zM80.275 3.14v14.8h2.544V3.14h-2.544zm14.838-.11a6.444 6.444 0 00-5.017 2.04V3.14h-2.465v14.8h2.543v-7.75c0-3 1.715-4.79 4.589-4.79 2.549 0 3.9 1.45 3.9 4.19v8.35h2.544V9.41c-.002-4-2.276-6.38-6.094-6.38zm16.969 11.69l-.318.29a2.754 2.754 0 01-1.855.64c-1.39 0-2.095-.75-2.095-2.24V5.33h4.251V3.07h-4.251V0h-2.534v13.52c0 2.81 1.61 4.42 4.416 4.42a4.778 4.778 0 003.166-1.08l.183-.16zM65.571.41a10.19 10.19 0 1010.1 10.17A9.82 9.82 0 0065.571.41zm4.6 14.8l-9.286.01a1.307 1.307 0 01-1.3-1.31V7.34a1.355 1.355 0 011.348-1.36h9.238a1.355 1.355 0 011.348 1.36v6.52a1.346 1.346 0 01-1.346 1.35z"/></svg></svg>